<svg xmlns="http://www.w3.org/2000/svg" id="canvas" style="position: fixed; top: 40px; left: 40px; user-select: none; touch-action: none;" height="417.5333251953125" width="481.83335876464844" viewBox="154.56666564941406 178.60000610351562 481.83335876464844 417.5333251953125" tabindex="0"><path id="line_w8Ea7pqEH5" d="M 310 320 L 310 300" fill="none" stroke="#dc3020" stroke-width="5" stroke-linecap="round" cursor="pointer"></path><path id="line_QBIIBC3zq9" d="M 310 340 L 310 320" fill="none" stroke="#dc3020" stroke-width="5" stroke-linecap="round" cursor="pointer"></path><path id="line_IJX4PTz75x" d="M 300 275 L 280 255" fill="none" stroke="#dc3020" stroke-width="5" cursor="pointer"></path><path id="line_hy9f0lrVnm" d="M 352.12132034355966 407.87867965644034 L 327.12132034355966 382.87867965644034" fill="none" stroke="#dc3020" stroke-width="5" stroke-linecap="round" cursor="pointer"></path><path id="line_WlIN2fCg0U" d="M 377.12132034355966 432.87867965644034 L 352.12132034355966 407.87867965644034" fill="none" stroke="#dc3020" stroke-width="5" stroke-linecap="round" cursor="pointer"></path><path id="line_i3DBdtvO17" d="M 372.87867965644034 437.12132034355966 L 347.87867965644034 412.12132034355966" fill="none" stroke="#ebbb40" stroke-width="5" stroke-linecap="round" cursor="pointer"></path><path id="line_WNjG3kL9N-" d="M 347.87867965644034 412.12132034355966 L 322.87867965644034 387.12132034355966" fill="none" stroke="#ebbb40" stroke-width="5" stroke-linecap="round" cursor="pointer"></path><path id="line_iCzqsA-kYx" d="M 375 435 L 375 395" fill="none" stroke="#4c4e9e" stroke-width="5" stroke-linecap="round" cursor="pointer"></path><path id="line__cX7WOopcB" d="M 375 395 L 375 370" fill="none" stroke="#4c4e9e" stroke-width="5" stroke-linecap="round" cursor="pointer"></path><path id="line_Uui7M5kl97" d="M 395 310 L 395 290" fill="none" stroke="#4c4e9e" stroke-width="5" stroke-linecap="round" cursor="pointer"></path><path id="line_oQKaJgLGaI" d="M 395 290 L 395 270" fill="none" stroke="#4c4e9e" stroke-width="5" stroke-linecap="round" cursor="pointer"></path><path id="line_4GYsYHm48Q" d="M 400 435 L 375 435" fill="none" stroke="#dc3020" stroke-width="5" stroke-linecap="round" cursor="pointer"></path><path id="line_CYLGVzW8RL" d="M 450 435 L 400 435" fill="none" stroke="#dc3020" stroke-width="5" stroke-linecap="round" cursor="pointer"></path><path id="line_1xq0ydYafk" d="M 250 370 L 225 370" fill="none" stroke="#ebbb40" stroke-width="5" cursor="pointer"></path><path id="line_UEjqVMVyB7" d="M 275 370 L 250 370" fill="none" stroke="#ebbb40" stroke-width="5" stroke-linecap="round" cursor="pointer"></path><path id="line_uslM161QxM" d="M 395 270 L 395 245" fill="none" stroke="#4c4e9e" stroke-width="5" cursor="pointer"></path><path id="line_PMBllClDbB" d="M 300 455 L 300 425" fill="none" stroke="#75cd63" stroke-width="5" stroke-linecap="round" cursor="pointer"></path><path id="line_tmgbBCbu-U" d="M 400 485 L 335 485" fill="none" stroke="#75cd63" stroke-width="5" stroke-linecap="round" cursor="pointer"></path><path id="line_8aftWvuU64" d="M 310 340 L 310 362.7573593128807 C 310 364.2573593128807 311.06066017177983 366.8180194846605 312.12132034355966 367.87867965644034 L 327.12132034355966 382.87867965644034 " fill="none" stroke="#dc3020" stroke-width="5" stroke-linecap="round" cursor="pointer"></path><path id="line_JeUWS2dybT" d="M 310 300 L 310 288 C 310 286.5 308.93933982822017 283.93933982822017 307.87867965644034 282.87867965644034 L 300 275 " fill="none" stroke="#dc3020" stroke-width="5" stroke-linecap="round" cursor="pointer"></path><path id="line_cDlT0AI6Or" d="M 375 370 L 375 338 C 375 336.5 376.06066017177983 333.93933982822017 377.12132034355966 332.87867965644034 L 385 325 " fill="none" stroke="#4c4e9e" stroke-width="5" stroke-linecap="round" cursor="pointer"></path><path id="line_8RHH-inYSr" d="M 395 310 L 395 312 C 395 313.5 393.93933982822017 316.06066017177983 392.87867965644034 317.12132034355966 L 385 325 " fill="none" stroke="#4c4e9e" stroke-width="5" stroke-linecap="round" cursor="pointer"></path><path id="line_Y-P_Scm__9" d="M 485 450 L 485 440 C 485 437.5 482.5 435 480 435 L 450 435 " fill="none" stroke="#dc3020" stroke-width="5" cursor="pointer"></path><path id="line_9tF_UndMM7" d="M 275 370 L 302.7573593128807 370 C 304.2573593128807 370 306.8180194846605 371.06066017177983 307.87867965644034 372.12132034355966 L 322.87867965644034 387.12132034355966 " fill="none" stroke="#ebbb40" stroke-width="5" stroke-linecap="round" cursor="pointer"></path><path id="line_bhFZL6XhTJ" d="M 400 485 L 400 463 C 400 461.5 398.93933982822017 458.93933982822017 397.87867965644034 457.87867965644034 L 375 435 " fill="none" stroke="#ebbb40" stroke-width="5" stroke-linecap="round" cursor="pointer"></path><path id="line_UIQHK-FkQ7" d="M 375 370 L 350 370 C 345 370 336.46446609406723 373.53553390593277 332.9289321881345 377.0710678118655 L 325 385 " fill="none" stroke="#75cd63" stroke-width="5" stroke-linecap="round" cursor="pointer"></path><path id="line_j5W_KI58wS" d="M 300 425 L 300 415 C 300 412.5 301.7677669529664 408.2322330470336 303.53553390593277 406.46446609406723 L 325 385 " fill="none" stroke="#75cd63" stroke-width="5" stroke-linecap="round" cursor="pointer"></path><path id="line_eC5wSjqiFC" d="M 375 435 L 375 442 C 375 443.5 373.93933982822017 446.06066017177983 372.87867965644034 447.12132034355966 L 335 485 " fill="none" stroke="#4c4e9e" stroke-width="5" stroke-linecap="round" cursor="pointer"></path><path id="line_6KxXWEmy7e" d="M 300 455 L 300 462 C 300 463.5 301.06066017177983 466.06066017177983 302.12132034355966 467.12132034355966 L 310 475 " fill="none" stroke="#75cd63" stroke-width="5" stroke-linecap="round" cursor="pointer"></path><path id="line_4QQ6ab6M0Q" d="M 335 485 L 323 485 C 321.5 485 318.93933982822017 483.93933982822017 317.87867965644034 482.87867965644034 L 310 475 " fill="none" stroke="#75cd63" stroke-width="5" stroke-linecap="round" cursor="pointer"></path><path id="line_np9AvM_mFW" d="M 400 485 L 431.67 485 C 440.83500000000004 485 450 475.83500000000004 450 466.67 L 450 435 " fill="none" stroke="#75cd63" stroke-width="5" stroke-linecap="round" cursor="pointer"></path><path id="line_1KV8Vo-BzB" d="M 375 370 L 431.67 370 C 440.83500000000004 370 450 379.16499999999996 450 388.33 L 450 435 " fill="none" stroke="#75cd63" stroke-width="5" stroke-linecap="round" cursor="pointer"></path><g id="stn_CQ4-AKkMiQ"><g transform="translate(310, 320)rotate(270)" style="cursor: move;"><rect id="stn_core_stn_CQ4-AKkMiQ" x="-1.6500000000000001" y="-5.800000000000001" width="3.3000000000000003" height="3.8000000000000003" stroke="none" fill="#dc3020"></rect></g><g transform="translate(300.85, 320)" text-anchor="end" fill="#003888"><g><text dy="0" dx="0" dominant-baseline="middle" font-size="10" font-family="Johnston, Railway, sans-serif">Kirigoe</text></g></g></g><g id="stn_R_U2uiEV0N"><g transform="translate(310, 300)" style="cursor: move;"><circle id="stn_core_stn_R_U2uiEV0N" r="6.25" width="3.3000000000000003" height="5.800000000000001" stroke="black" stroke-width="2.5" fill="white"></circle></g><g transform="translate(319.15, 300)" text-anchor="start" fill="#003888"><g><text dy="1" dx="0" dominant-baseline="middle" font-size="10" font-family="Johnston, Railway, sans-serif">Glastonbury</text></g></g></g><g id="stn_ocsMEg8rUD"><g transform="translate(310, 340)rotate(90)" style="cursor: move;"><rect id="stn_core_stn_ocsMEg8rUD" x="-1.6500000000000001" y="-5.800000000000001" width="3.3000000000000003" height="3.8000000000000003" stroke="none" fill="#dc3020"></rect></g><g transform="translate(319.15, 340)" text-anchor="start" fill="#003888"><g><text dy="-4.25" dx="0" dominant-baseline="middle" font-size="10" font-family="Johnston, Railway, sans-serif">Upper </text><text dy="4.25" dx="0" dominant-baseline="middle" font-size="10" font-family="Johnston, Railway, sans-serif">Annagrad</text></g></g></g><g id="stn_mT2amM2PAB" transform="translate(325, 385)"><g transform="rotate(135)" style="cursor: move;"><rect x="-5.5" y="-3" width="11" height="6" ry="3" stroke="#616161" stroke-width="1" fill="white"></rect><circle r="2" cx="-2.5" fill="#dc3020"></circle><circle r="2" cx="2.5" fill="#ebbb40"></circle><rect id="stn_core_stn_mT2amM2PAB" x="-6" y="-3.5" width="12" height="7" ry="3" fill="white" opacity="0"></rect></g><g transform="translate(-8.88908729652601, 5)" text-anchor="end"><g><text dy="-1" dx="0" dominant-baseline="auto" font-size="10" font-family="SimHei, 'STHeiti T0C', 'PingFang SC', sans-serif" style="font-synthesis: none;">Annagrad</text></g><g><text dy="1.5" dx="0" dominant-baseline="hanging" font-size="5" font-family="Arial, sans-serif" fill="gray"></text></g></g></g><g id="stn_pTnn_W6CKW"><g transform="translate(300, 275)rotate(45)" style="cursor: move;"><rect id="stn_core_stn_pTnn_W6CKW" x="-1.6500000000000001" y="-5.800000000000001" width="3.3000000000000003" height="3.8000000000000003" stroke="none" fill="#DC241F"></rect></g><g transform="translate(306.4700270478569, 268.5299729521431)" text-anchor="start" fill="#003888"><g><text dy="0" dx="0" dominant-baseline="auto" font-size="10" font-family="Johnston, Railway, sans-serif">Haruna</text></g></g></g><g id="stn_NTASv4EV_k"><g transform="translate(280, 255)rotate(45)" style="cursor: move;"><rect id="stn_core_stn_NTASv4EV_k" x="-1.6500000000000001" y="-5.800000000000001" width="3.3000000000000003" height="11.600000000000001" stroke="none" fill="#dc3020"></rect></g><g transform="translate(286.4700270478569, 248.52997295214308)" text-anchor="start" fill="#003888"><g><text dy="0" dx="0" dominant-baseline="auto" font-size="10" font-family="Johnston, Railway, sans-serif">Yukovsk</text></g></g></g><g id="misc_node_DxyEgvkLNH" transform="translate(265, 255)scale(0.8)" style="cursor: move;"><rect fill="#dc3020" x="-8" y="-8" width="16" height="16" rx="2.5" ry="2.5"></rect><g><text font-family="'Taipei Sans TC Beta', Arial, sans-serif" style="font-synthesis: none;" text-anchor="middle" dominant-baseline="central" font-size="10" fill="#fff">M1</text></g></g><g id="stn_GDwzaCGVXf" transform="translate(350, 410)"><g transform="rotate(135)" style="cursor: move;"><rect x="-5.5" y="-3" width="11" height="6" ry="3" stroke="#616161" stroke-width="1" fill="white"></rect><circle r="2" cx="-2.5" fill="#dc3020"></circle><circle r="2" cx="2.5" fill="#ebbb40"></circle><rect id="stn_core_stn_GDwzaCGVXf" x="-6" y="-3.5" width="12" height="7" ry="3" fill="white" opacity="0"></rect></g><g transform="translate(-8.88908729652601, 5)" text-anchor="end"><g><text dy="-1" dx="0" dominant-baseline="auto" font-size="10" font-family="SimHei, 'STHeiti T0C', 'PingFang SC', sans-serif" style="font-synthesis: none;">Union Park</text></g><g><text dy="1.5" dx="0" dominant-baseline="hanging" font-size="5" font-family="Arial, sans-serif" fill="gray">Gov Ctr</text></g></g></g><g id="stn_TGtgKSbxet"><g transform="translate(375, 435)" style="cursor: move;"><circle id="stn_core_stn_TGtgKSbxet" r="6.25" width="3.3000000000000003" height="5.800000000000001" stroke="black" stroke-width="2.5" fill="white"></circle></g><g transform="translate(375, 444.15)" text-anchor="middle" fill="#003888"><g><text dy="1" dx="0" dominant-baseline="hanging" font-size="10" font-family="Johnston, Railway, sans-serif">Trans-Tsardom</text><text dy="9.5" dx="0" dominant-baseline="hanging" font-size="10" font-family="Johnston, Railway, sans-serif">Terminal</text></g></g></g><g id="stn_M6Iq8mfjUl"><g transform="translate(375, 395)rotate(90)" style="cursor: move;"><rect id="stn_core_stn_M6Iq8mfjUl" x="-1.6500000000000001" y="-5.800000000000001" width="3.3000000000000003" height="3.8000000000000003" stroke="none" fill="#4c4e9e"></rect></g><g transform="translate(384.15, 395)" text-anchor="start" fill="#003888"><g><text dy="-4.25" dx="0" dominant-baseline="middle" font-size="10" font-family="Johnston, Railway, sans-serif">Phonograph </text><text dy="4.25" dx="0" dominant-baseline="middle" font-size="10" font-family="Johnston, Railway, sans-serif">Ave</text></g></g></g><g id="stn_Oa3Ozj1L3e"><g transform="translate(375, 370)" style="cursor: move;"><circle id="stn_core_stn_Oa3Ozj1L3e" r="6.25" width="3.3000000000000003" height="5.800000000000001" stroke="black" stroke-width="2.5" fill="white"></circle></g><g transform="translate(384.15, 370)" text-anchor="start" fill="#003888"><g><text dy="-3.25" dx="0" dominant-baseline="middle" font-size="10" font-family="Johnston, Railway, sans-serif">Technology</text><text dy="5.25" dx="0" dominant-baseline="middle" font-size="10" font-family="Johnston, Railway, sans-serif">District</text></g></g></g><g id="stn_SauenJs7vg"><g transform="translate(385, 325)rotate(135)" style="cursor: move;"><rect id="stn_core_stn_SauenJs7vg" x="-1.6500000000000001" y="-5.800000000000001" width="3.3000000000000003" height="3.8000000000000003" stroke="none" fill="#4c4e9e"></rect></g><g transform="translate(391.4700270478569, 331.4700270478569)" text-anchor="start" fill="#003888"><g><text dy="0" dx="0" dominant-baseline="hanging" font-size="10" font-family="Johnston, Railway, sans-serif">North </text><text dy="8.5" dx="0" dominant-baseline="hanging" font-size="10" font-family="Johnston, Railway, sans-serif">Matveyovsk</text></g></g></g><g id="stn_FmbTU9IQar"><g transform="translate(395, 310)rotate(90)" style="cursor: move;"><rect id="stn_core_stn_FmbTU9IQar" x="-1.6500000000000001" y="-5.800000000000001" width="3.3000000000000003" height="3.8000000000000003" stroke="none" fill="#4c4e9e"></rect></g><g transform="translate(404.15, 310)" text-anchor="start" fill="#003888"><g><text dy="0" dx="0" dominant-baseline="middle" font-size="10" font-family="Johnston, Railway, sans-serif">Takino</text></g></g></g><g id="stn_t5r-7Z6rRP"><g transform="translate(395, 290)rotate(90)" style="cursor: move;"><rect id="stn_core_stn_t5r-7Z6rRP" x="-1.6500000000000001" y="-5.800000000000001" width="3.3000000000000003" height="3.8000000000000003" stroke="none" fill="#4c4e9e"></rect></g><g transform="translate(404.15, 290)" text-anchor="start" fill="#003888"><g><text dy="0" dx="0" dominant-baseline="middle" font-size="10" font-family="Johnston, Railway, sans-serif">Sikorsky</text></g></g></g><g id="stn_xVs8pXQMOv"><g transform="translate(395, 270)rotate(90)" style="cursor: move;"><rect id="stn_core_stn_xVs8pXQMOv" x="-1.6500000000000001" y="-5.800000000000001" width="3.3000000000000003" height="3.8000000000000003" stroke="none" fill="#4c4e9e"></rect></g><g transform="translate(404.15, 270)" text-anchor="start" fill="#003888"><g><text dy="-4.25" dx="0" dominant-baseline="middle" font-size="10" font-family="Johnston, Railway, sans-serif">Yekaterina </text><text dy="4.25" dx="0" dominant-baseline="middle" font-size="10" font-family="Johnston, Railway, sans-serif">Airport</text></g></g></g><g id="misc_node_KdtR3Z_NcX" transform="translate(449, 263.5)" style="cursor: move;"><use href="#airport_london" height="12.5" width="12.1"></use></g><g id="stn_TP7bE8pnIs"><g transform="translate(400, 435)rotate(0)" style="cursor: move;"><rect id="stn_core_stn_TP7bE8pnIs" x="-1.6500000000000001" y="-5.800000000000001" width="3.3000000000000003" height="3.8000000000000003" stroke="none" fill="#dc3020"></rect></g><g transform="translate(400, 425.85)" text-anchor="middle" fill="#003888"><g><text dy="0" dx="0" dominant-baseline="auto" font-size="10" font-family="Johnston, Railway, sans-serif">Front St</text></g></g></g><g id="stn_fRqOegGXHd"><g transform="translate(450, 435)" style="cursor: move;"><circle id="stn_core_stn_fRqOegGXHd" r="6.25" width="3.3000000000000003" height="5.800000000000001" stroke="black" stroke-width="2.5" fill="white"></circle></g><g transform="translate(450, 425.85)" text-anchor="middle" fill="#003888"><g><text dy="-1" dx="0" dominant-baseline="auto" font-size="10" font-family="Johnston, Railway, sans-serif">Mayagrad</text></g></g></g><g id="stn_O0BexpS4yF"><g transform="translate(485, 450)rotate(90)" style="cursor: move;"><rect id="stn_core_stn_O0BexpS4yF" x="-1.6500000000000001" y="-5.800000000000001" width="3.3000000000000003" height="11.600000000000001" stroke="none" fill="#dc3020"></rect></g><g transform="translate(494.15, 450)" text-anchor="start" fill="#003888"><g><text dy="-4.25" dx="0" dominant-baseline="middle" font-size="10" font-family="Johnston, Railway, sans-serif">Mayagrad</text><text dy="4.25" dx="0" dominant-baseline="middle" font-size="10" font-family="Johnston, Railway, sans-serif">Hts</text></g></g></g><g id="misc_node_eXEAgNt-Qt" transform="translate(395, 235)scale(0.8)" style="cursor: move;"><rect fill="#4c4e9e" x="-8" y="-8" width="16" height="16" rx="2.5" ry="2.5"></rect><g><text font-family="'Taipei Sans TC Beta', Arial, sans-serif" style="font-synthesis: none;" text-anchor="middle" dominant-baseline="central" font-size="10" fill="#fff">M3</text></g></g><g id="misc_node_w55jBilb1A" transform="translate(215, 370)scale(0.8)" style="cursor: move;"><rect fill="#ebbb40" x="-8" y="-8" width="16" height="16" rx="2.5" ry="2.5"></rect><g><text font-family="'Taipei Sans TC Beta', Arial, sans-serif" style="font-synthesis: none;" text-anchor="middle" dominant-baseline="central" font-size="10" fill="#000">M2</text></g></g><g id="stn_IbkRxQCWaf"><g transform="translate(225, 370)rotate(0)" style="cursor: move;"><rect id="stn_core_stn_IbkRxQCWaf" x="-1.6500000000000001" y="-5.800000000000001" width="3.3000000000000003" height="11.600000000000001" stroke="none" fill="#ebbb40"></rect></g><g transform="translate(225, 360.85)" text-anchor="middle" fill="#003888"><g><text dy="0" dx="0" dominant-baseline="auto" font-size="10" font-family="Johnston, Railway, sans-serif">Kasugrad</text></g></g></g><g id="stn_H4-fGb5li-"><g transform="translate(250, 370)rotate(180)" style="cursor: move;"><rect id="stn_core_stn_H4-fGb5li-" x="-1.6500000000000001" y="-5.800000000000001" width="3.3000000000000003" height="3.8000000000000003" stroke="none" fill="#ebbb40"></rect></g><g transform="translate(250, 379.15)" text-anchor="middle" fill="#003888"><g><text dy="0" dx="0" dominant-baseline="hanging" font-size="10" font-family="Johnston, Railway, sans-serif">Asahi</text></g></g></g><g id="stn_1YpEd8el_9"><g transform="translate(275, 370)rotate(0)" style="cursor: move;"><rect id="stn_core_stn_1YpEd8el_9" x="-1.6500000000000001" y="-5.800000000000001" width="3.3000000000000003" height="3.8000000000000003" stroke="none" fill="#ebbb40"></rect></g><g transform="translate(275, 360.85)" text-anchor="middle" fill="#003888"><g><text dy="0" dx="0" dominant-baseline="auto" font-size="10" font-family="Johnston, Railway, sans-serif">Nyamsky</text></g></g></g><g id="stn_VptOlxjeO0"><g transform="translate(400, 485)" style="cursor: move;"><circle r="7.25" stroke="#003888" stroke-width="0.5" fill="white"></circle><g fill="#003888" transform="scale(0.222)"><path d="M-18.2,12.6c2.4-0.6,5.8-1.6,11.5-0.4c2.9,0.6,5.6,1.3,8.3,1.3c3.5,0,5.4-0.6,8.1-1.2c2.4-0.6,5.2-1.2,7.4-1.1c3.8,0.1,6.6,0.7,8.2,1.4l-1.2-3.1C21,8.3,15.8,7.7,9.7,9.5c-2.6,0.7-5.2,1.3-7.9,1.2c-2.5,0-4.8-0.4-7.2-1C-13,8-15.9,9.3-19.8,10.3L-18.2,12.6z"></path><path d="M23.8-2h-4.1l-1.8-4.8c0,0-0.1-0.6-1-1.3c-0.6-0.5-1.6-0.5-1.6-0.5H4v-2h-6.9l-1.1-1.5l0.8-1.9h-1.9l-1.5,3.5h-2.6v2h-5.8c0,0-0.8,0.1-1.2,0.3c-0.4,0.3-0.6,0.5-0.6,0.5l-4.4,5.8h-7.3l7.3,10c1.6-0.7,6.6-2,9.7-1.9c4.1,0.1,9.5,1.9,13.1,1.9c6.6,0,8.8-2,14.6-2.3c7.1-0.4,11.6,2.3,11.6,2.3L23.8-2z M-11.1-2h-7.1l1.9-2.5c0,0,0.8-1.1,1.2-1.3c0.7-0.4,1.2-0.5,1.2-0.5h2.8V-2z M-9.2-2v-4.3h7.4v4.4L-9.2-2z M7.4-2H0v-4.3h7.4V-2z M9.3-2v-4.3h5.1c0,0,0.4,0,0.8,0.4c0.3,0.2,0.5,0.7,0.5,0.7l1.2,3.3L9.3-2z"></path></g></g><g transform="translate(409.15, 485)" text-anchor="start" fill="#003888"><g><text dy="-3.25" dx="0" dominant-baseline="middle" font-size="10" font-family="Johnston, Railway, sans-serif">Front St</text><text dy="5.25" dx="0" dominant-baseline="middle" font-size="10" font-family="Johnston, Railway, sans-serif">Ferry Terminal</text></g></g></g><g id="stn_DBuy1pZg3S"><g transform="translate(395, 245)rotate(90)" style="cursor: move;"><rect id="stn_core_stn_DBuy1pZg3S" x="-1.6500000000000001" y="-5.800000000000001" width="3.3000000000000003" height="11.600000000000001" stroke="none" fill="#4c4e9e"></rect></g><g transform="translate(404.15, 245)" text-anchor="start" fill="#003888"><g><text dy="-4.25" dx="0" dominant-baseline="middle" font-size="10" font-family="Johnston, Railway, sans-serif">Yekaterina </text><text dy="4.25" dx="0" dominant-baseline="middle" font-size="10" font-family="Johnston, Railway, sans-serif">Airport</text></g></g></g><g id="stn_KnZmC3ovOr"><g transform="translate(300, 425)rotate(270)" style="cursor: move;"><rect id="stn_core_stn_KnZmC3ovOr" x="-1.6500000000000001" y="-5.800000000000001" width="3.3000000000000003" height="3.8000000000000003" stroke="none" fill="#75cd63"></rect></g><g transform="translate(290.85, 425)" text-anchor="end" fill="#003888"><g><text dy="0" dx="0" dominant-baseline="middle" font-size="10" font-family="Johnston, Railway, sans-serif">Grand Pkwy</text></g></g></g><g id="stn_Sj2gAgHu5I"><g transform="translate(300, 455)rotate(270)" style="cursor: move;"><rect id="stn_core_stn_Sj2gAgHu5I" x="-1.6500000000000001" y="-5.800000000000001" width="3.3000000000000003" height="3.8000000000000003" stroke="none" fill="#75cd63"></rect></g><g transform="translate(290.85, 455)" text-anchor="end" fill="#003888"><g><text dy="-4.25" dx="0" dominant-baseline="middle" font-size="10" font-family="Johnston, Railway, sans-serif">Foothill </text><text dy="4.25" dx="0" dominant-baseline="middle" font-size="10" font-family="Johnston, Railway, sans-serif">Park</text></g></g></g><g id="stn_tVeUITdUxr"><g transform="translate(335, 485)" style="cursor: move;"><circle id="stn_core_stn_tVeUITdUxr" r="6.25" width="3.3000000000000003" height="5.800000000000001" stroke="black" stroke-width="2.5" fill="white"></circle></g><g transform="translate(325.85, 485)" text-anchor="end" fill="#003888"><g><text dy="1" dx="0" dominant-baseline="middle" font-size="10" font-family="Johnston, Railway, sans-serif">Valentina</text></g></g></g><g id="misc_node_8rSmg5cHaw" transform="translate(300, 440)scale(1)" style="cursor: move;"><rect fill="#75cd63" x="-8" y="-8" width="16" height="16" rx="2.5" ry="2.5"></rect><g><text font-family="'Taipei Sans TC Beta', Arial, sans-serif" style="font-synthesis: none;" text-anchor="middle" dominant-baseline="central" font-size="10" fill="#000">IN</text></g></g><g id="misc_node_0MtBLVSBWA" transform="translate(450, 400)scale(1)" style="cursor: move;"><rect fill="#75cd63" x="-8" y="-8" width="16" height="16" rx="2.5" ry="2.5"></rect><g><text font-family="'Taipei Sans TC Beta', Arial, sans-serif" style="font-synthesis: none;" text-anchor="middle" dominant-baseline="central" font-size="10" fill="#000">IN</text></g></g><defs><pattern id="opaque" width="5" height="5" patternUnits="userSpaceOnUse"><rect x="0" y="0" width="2.5" height="2.5" fill="black" fill-opacity="50%"></rect><rect x="2.5" y="2.5" width="2.5" height="2.5" fill="black" fill-opacity="50%"></rect></pattern></defs><symbol xmlns="http://www.w3.org/2000/svg" width="12.1" height="12.5" viewBox="0 0 45.8 47.3" id="airport_london">
  <path fill="#003888" d="M29.8 47.1V43l-4.6-3.2V28.3l20.3 6.4v-5L25.2 17.4v-15C25.2 1 24-.2 22.6-.2S20 1 20 2.4v15L-.3 29.8v5L20 28.3v11.4L15.4 43v4.1l7.2-2.2z"></path>
</symbol></svg>